<svg xmlns="http://www.w3.org/2000/svg" viewBox="0 0 24 24" id="Electronics-Fuse--Streamline-Ultimate" height="24" width="24">
  <desc>
    Electronics Fuse Streamline Icon: https://streamlinehq.com
  </desc>
  <title>electronics-fuse</title>
  <path d="m0.7947591105 16.091294688 1.4234059505 -1.4234059506s0.7113494219 -0.7113494219 1.4226988437 0l5.6915024818 5.6915024817s0.7113494219 0.711349422 0 1.4226988438L7.908960436 23.2054960134s-0.7113494219 0.7113494219 -1.4226988438 0L0.7947591105 17.5139935317s-0.711349422 -0.711349422 0 -1.4226988438" fill="none" stroke="#220430" stroke-linecap="round" stroke-linejoin="round" stroke-width="1"></path>
  <path d="M14.6677591105 2.2179099371 16.091165061 0.7945039866s0.7113494219 -0.7113494219 1.4226988437 0l5.6915024818 5.6915024817s0.7113494219 0.711349422 0 1.4226988438L21.781960436 9.3321112626s-0.7113494219 0.7113494219 -1.4226988438 0L14.6677591105 3.640608781s-0.711349422 -0.711349422 0 -1.4226988438" fill="none" stroke="#220430" stroke-linecap="round" stroke-linejoin="round" stroke-width="1"></path>
  <path d="M3.6394392745 14.6679138854 14.6667695271 3.6405836328l5.6915024818 5.6915024818L9.3309417563 20.3594163672Z" fill="none" stroke="#220430" stroke-linecap="round" stroke-linejoin="round" stroke-width="1"></path>
  <path d="M6.486 17.514 9.5 14.5l2.5 0 0 -5 2.5 0 3.014 -3.014" fill="none" stroke="#220430" stroke-linecap="round" stroke-linejoin="round" stroke-width="1"></path>
</svg>
